<?xml version="1.0" encoding="UTF-8"?>
<!DOCTYPE svg PUBLIC "-//W3C//DTD SVG 1.1//EN" "http://www.w3.org/Graphics/SVG/1.1/DTD/svg11.dtd">
<svg xmlns="http://www.w3.org/2000/svg" version="1.1" width="80px" height="80px" style="shape-rendering:geometricPrecision; text-rendering:geometricPrecision; image-rendering:optimizeQuality; fill-rule:evenodd; clip-rule:evenodd" xmlns:xlink="http://www.w3.org/1999/xlink">
<g><path style="opacity:1" fill="#e8c47e" d="M 61.5,4.5 C 58.8573,10.6979 56.3573,17.0312 54,23.5C 53.1841,24.8228 52.0174,25.4894 50.5,25.5C 49.1526,26.0283 47.8193,26.195 46.5,26C 48.2858,20.3639 50.4524,14.8639 53,9.5C 55.0287,6.40438 57.862,4.73771 61.5,4.5 Z"/></g>
<g><path style="opacity:1" fill="#c5ced8" d="M 64.5,3.5 C 65.4552,5.74571 66.1218,8.07905 66.5,10.5C 67.5,10.5 68.5,10.5 69.5,10.5C 72.4756,14.4815 75.4756,18.4815 78.5,22.5C 77.8333,23.8333 76.8333,24.8333 75.5,25.5C 72.557,24.7565 69.557,24.2565 66.5,24C 65.6667,23.1667 64.8333,22.3333 64,21.5C 62.3499,24.4505 61.5166,27.6171 61.5,31C 62.2917,35.1567 62.4583,39.3234 62,43.5C 60.9078,47.4281 58.4078,49.7614 54.5,50.5C 52.781,57.7027 52.4477,65.036 53.5,72.5C 52.1667,72.5 50.8333,72.5 49.5,72.5C 48.5839,65.7947 48.5839,59.1281 49.5,52.5C 40.4894,52.5856 31.9894,50.5856 24,46.5C 21.6767,49.8032 19.3434,53.1365 17,56.5C 15.9054,61.7797 15.4054,67.113 15.5,72.5C 13.8333,72.5 12.1667,72.5 10.5,72.5C 10.6391,63.9533 11.9725,55.62 14.5,47.5C 11.8201,43.4461 10.1534,39.1128 9.5,34.5C 10.1667,32.5 10.8333,30.5 11.5,28.5C 11.8333,28.5 12.1667,28.5 12.5,28.5C 14.8614,25.821 17.8614,24.4876 21.5,24.5C 26.6233,25.9287 31.79,27.262 37,28.5C 39.187,28.2115 41.3537,27.8782 43.5,27.5C 45.5273,27.6621 47.5273,27.4955 49.5,27C 50.056,26.6174 50.3893,26.1174 50.5,25.5C 52.0174,25.4894 53.1841,24.8228 54,23.5C 56.3573,17.0312 58.8573,10.6979 61.5,4.5C 62.1667,4.5 62.5,4.16667 62.5,3.5C 63.1667,2.16667 63.8333,2.16667 64.5,3.5 Z"/></g>
<g><path style="opacity:1" fill="#d0ad6d" d="M 64.5,3.5 C 68.316,2.78869 71.316,3.95536 73.5,7C 73.0217,8.30264 72.355,9.46931 71.5,10.5C 70.8333,10.5 70.1667,10.5 69.5,10.5C 68.5,10.5 67.5,10.5 66.5,10.5C 66.1218,8.07905 65.4552,5.74571 64.5,3.5 Z"/></g>
<g><path style="opacity:0.992" fill="#9c804d" d="M 62.5,3.5 C 62.5,4.16667 62.1667,4.5 61.5,4.5C 57.862,4.73771 55.0287,6.40438 53,9.5C 50.4524,14.8639 48.2858,20.3639 46.5,26C 47.8193,26.195 49.1526,26.0283 50.5,25.5C 50.3893,26.1174 50.056,26.6174 49.5,27C 47.5273,27.4955 45.5273,27.6621 43.5,27.5C 43.5,27.1667 43.5,26.8333 43.5,26.5C 44.4687,25.6906 45.3021,24.6906 46,23.5C 47.607,18.0116 49.607,12.6783 52,7.5C 54.913,4.62686 58.413,3.29353 62.5,3.5 Z"/></g>
<g><path style="opacity:0.953" fill="#6f8196" d="M 43.5,26.5 C 43.5,26.8333 43.5,27.1667 43.5,27.5C 41.3537,27.8782 39.187,28.2115 37,28.5C 31.79,27.262 26.6233,25.9287 21.5,24.5C 17.8614,24.4876 14.8614,25.821 12.5,28.5C 12.5,28.1667 12.5,27.8333 12.5,27.5C 14.5764,24.2985 17.5764,22.9651 21.5,23.5C 28.6433,25.7667 35.9767,26.7667 43.5,26.5 Z"/></g>
<g><path style="opacity:1" fill="#f1ca82" d="M 11.5,28.5 C 10.8333,30.5 10.1667,32.5 9.5,34.5C 9.5,35.5 9.5,36.5 9.5,37.5C 8.39953,39.2774 7.56619,41.2774 7,43.5C 6.66667,47.5 6.33333,51.5 6,55.5C 1.67564,49.8694 0.00897501,43.5361 1,36.5C 2.63547,31.3623 6.13547,28.6957 11.5,28.5 Z"/></g>
<g><path style="opacity:0.804" fill="#9b7e48" d="M 12.5,27.5 C 12.5,27.8333 12.5,28.1667 12.5,28.5C 12.1667,28.5 11.8333,28.5 11.5,28.5C 6.13547,28.6957 2.63547,31.3623 1,36.5C 0.00897501,43.5361 1.67564,49.8694 6,55.5C 6.33333,51.5 6.66667,47.5 7,43.5C 7.56619,41.2774 8.39953,39.2774 9.5,37.5C 9.5,39.1667 9.5,40.8333 9.5,42.5C 8.04367,47.9337 7.21033,53.6003 7,59.5C 3.71103,55.907 1.21103,51.907 -0.5,47.5C -0.5,43.1667 -0.5,38.8333 -0.5,34.5C 2.14632,29.215 6.47965,26.8817 12.5,27.5 Z"/></g>
<g><path style="opacity:0.589" fill="#6c7e94" d="M 69.5,10.5 C 70.1667,10.5 70.8333,10.5 71.5,10.5C 73.8171,14.1464 76.4838,17.4797 79.5,20.5C 79.5,22.1667 79.5,23.8333 79.5,25.5C 78.2794,26.0283 77.1127,26.695 76,27.5C 72.4266,26.1332 68.7599,25.1332 65,24.5C 64.6667,24.8333 64.3333,25.1667 64,25.5C 64.0216,36.1235 64.0216,46.7902 64,57.5C 65.4868,62.7788 66.6535,68.1121 67.5,73.5C 65.1667,73.5 62.8333,73.5 60.5,73.5C 58.6889,66.9207 57.1889,60.254 56,53.5C 55.1816,56.1071 54.6816,58.7737 54.5,61.5C 55.2308,66.1405 55.5641,70.8072 55.5,75.5C 53.1667,75.5 50.8333,75.5 48.5,75.5C 47.1623,68.1628 46.8289,60.8294 47.5,53.5C 42.0494,53.755 36.7161,53.0883 31.5,51.5C 29.123,52.5012 28.123,54.3345 28.5,57C 29.1348,62.518 29.8015,68.018 30.5,73.5C 27.8333,73.5 25.1667,73.5 22.5,73.5C 22.4828,67.3597 21.6495,61.3597 20,55.5C 18.9563,56.6226 18.2896,57.9559 18,59.5C 17.3159,64.8222 16.8159,70.1556 16.5,75.5C 14.1667,75.5 11.8333,75.5 9.5,75.5C 9.40306,66.3725 10.4031,57.3725 12.5,48.5C 11.999,46.1643 10.999,44.1643 9.5,42.5C 9.5,40.8333 9.5,39.1667 9.5,37.5C 9.5,36.5 9.5,35.5 9.5,34.5C 10.1534,39.1128 11.8201,43.4461 14.5,47.5C 11.9725,55.62 10.6391,63.9533 10.5,72.5C 12.1667,72.5 13.8333,72.5 15.5,72.5C 15.4054,67.113 15.9054,61.7797 17,56.5C 19.3434,53.1365 21.6767,49.8032 24,46.5C 31.9894,50.5856 40.4894,52.5856 49.5,52.5C 48.5839,59.1281 48.5839,65.7947 49.5,72.5C 50.8333,72.5 52.1667,72.5 53.5,72.5C 52.4477,65.036 52.781,57.7027 54.5,50.5C 58.4078,49.7614 60.9078,47.4281 62,43.5C 62.4583,39.3234 62.2917,35.1567 61.5,31C 61.5166,27.6171 62.3499,24.4505 64,21.5C 64.8333,22.3333 65.6667,23.1667 66.5,24C 69.557,24.2565 72.557,24.7565 75.5,25.5C 76.8333,24.8333 77.8333,23.8333 78.5,22.5C 75.4756,18.4815 72.4756,14.4815 69.5,10.5 Z"/></g>
<g><path style="opacity:1" fill="#b6c3d3" d="M 60.5,48.5 C 62.163,55.6991 63.8297,63.0324 65.5,70.5C 64.1667,70.5 62.8333,70.5 61.5,70.5C 60.0277,65.6082 59.0277,60.6082 58.5,55.5C 58.3187,52.8368 58.9854,50.5034 60.5,48.5 Z"/></g>
<g><path style="opacity:1" fill="#9eadbd" d="M 23.5,48.5 C 25.4835,48.3832 27.1502,49.0499 28.5,50.5C 27.16,51.6878 26.4934,53.1878 26.5,55C 27.2004,60.1743 27.8671,65.3409 28.5,70.5C 26.8333,70.5 25.1667,70.5 23.5,70.5C 22.5837,63.1269 22.5837,55.7936 23.5,48.5 Z"/></g>
</svg>
