<?xml version="1.0" encoding="UTF-8"?>
<!DOCTYPE svg PUBLIC "-//W3C//DTD SVG 1.1//EN" "http://www.w3.org/Graphics/SVG/1.1/DTD/svg11.dtd">
<svg xmlns="http://www.w3.org/2000/svg" version="1.1" width="100px" height="100px" style="shape-rendering:geometricPrecision; text-rendering:geometricPrecision; image-rendering:optimizeQuality; fill-rule:evenodd; clip-rule:evenodd" xmlns:xlink="http://www.w3.org/1999/xlink">
<g><path style="opacity:0.958" fill="#ebebec" d="M 56.5,5.5 C 57.9418,6.81953 58.6085,8.4862 58.5,10.5C 59.5,10.5 60.5,10.5 61.5,10.5C 66.7386,10.2873 70.7386,12.4539 73.5,17C 77.1206,16.5948 80.7872,16.5948 84.5,17C 85.6906,17.6979 86.6906,18.5313 87.5,19.5C 88.0758,25.6823 85.9091,30.6823 81,34.5C 80.1231,36.6742 80.6231,38.3409 82.5,39.5C 86.4718,43.8073 90.4718,48.1407 94.5,52.5C 96.8804,72.1146 88.5471,79.1146 69.5,73.5C 68.1667,72.5 66.8333,71.5 65.5,70.5C 65.5858,69.5041 65.2524,68.6708 64.5,68C 61.5184,67.502 58.5184,67.3354 55.5,67.5C 55.666,72.8437 55.4994,78.1771 55,83.5C 54.0138,86.8057 52.5138,89.8057 50.5,92.5C 36.6501,90.2417 24.6501,84.2417 14.5,74.5C 14.3893,73.8826 14.056,73.3826 13.5,73C 11.1902,72.5034 8.85684,72.3367 6.5,72.5C 4.31985,70.9687 3.31985,68.8021 3.5,66C 6.20148,56.8897 8.70148,47.723 11,38.5C 13.3494,35.9832 15.8494,33.6499 18.5,31.5C 19.9073,27.9328 21.9073,24.7662 24.5,22C 32.9725,18.1101 40.3059,12.7768 46.5,6C 49.8944,4.31589 53.2277,4.14923 56.5,5.5 Z"/></g>
<g><path style="opacity:0.207" fill="#010101" d="M 56.5,5.5 C 59.144,6.1439 60.8106,7.81057 61.5,10.5C 60.5,10.5 59.5,10.5 58.5,10.5C 58.6085,8.4862 57.9418,6.81953 56.5,5.5 Z"/></g>
<g><path style="opacity:1" fill="#453d70" d="M 50.5,9.5 C 51.5,9.5 52.5,9.5 53.5,9.5C 53.1253,12.3965 53.6253,15.0632 55,17.5C 57.1529,15.5561 59.6529,15.0561 62.5,16C 66.352,18.5277 70.1854,21.0277 74,23.5C 76.8224,22.7245 79.6557,22.0579 82.5,21.5C 82.5255,26.4759 80.1921,29.8092 75.5,31.5C 74.1646,35.8697 74.9979,39.8697 78,43.5C 81.6667,47.1667 85.3333,50.8333 89,54.5C 92.1415,67.0268 87.3082,72.1935 74.5,70C 71.5372,68.0394 68.8706,65.706 66.5,63C 61.3478,62.8209 56.3478,61.9876 51.5,60.5C 51.0377,69.5755 50.0377,78.5755 48.5,87.5C 35.6198,83.7249 24.6198,76.8916 15.5,67C 13.1527,66.6664 10.8194,66.833 8.5,67.5C 11.9276,59.1264 14.4276,50.4597 16,41.5C 18.039,39.1255 20.3723,37.1255 23,35.5C 24.4103,28.589 28.577,24.589 35.5,23.5C 37.4607,19.993 40.4607,18.6597 44.5,19.5C 44.4914,17.6916 44.9914,16.0249 46,14.5C 47.7073,12.9625 49.2073,11.2959 50.5,9.5 Z"/></g>
<g><path style="opacity:1" fill="#d07d56" d="M 50.5,16.5 C 50.5,19.1667 50.5,21.8333 50.5,24.5C 52.1667,24.5 53.8333,24.5 55.5,24.5C 58.6809,26.8373 62.0142,29.004 65.5,31C 67.4727,31.4955 69.4727,31.6621 71.5,31.5C 71.338,36.1821 72.5046,40.5155 75,44.5C 78.6667,48.1667 82.3333,51.8333 86,55.5C 89.0914,65.4076 85.5914,69.2409 75.5,67C 72.5372,65.0394 69.8706,62.706 67.5,60C 63.8333,59.6667 60.1667,59.3333 56.5,59C 54.3496,57.5886 52.0163,56.7553 49.5,56.5C 48.0449,65.445 47.0449,74.445 46.5,83.5C 35.0177,79.9263 25.3511,73.593 17.5,64.5C 21.478,60.2112 24.1447,55.2112 25.5,49.5C 27.1381,52.3041 28.9715,54.9708 31,57.5C 30.5695,49.4643 32.5695,42.131 37,35.5C 38.5686,49.613 41.5686,49.613 46,35.5C 46.3333,30.1667 46.6667,24.8333 47,19.5C 47.7485,17.6675 48.7485,16.0009 50,14.5C 50.4643,15.0944 50.631,15.7611 50.5,16.5 Z"/></g>
<g><path style="opacity:1" fill="#97625f" d="M 50.5,16.5 C 51.9265,18.1484 52.7599,20.1484 53,22.5C 53.9947,23.0659 54.828,23.7326 55.5,24.5C 53.8333,24.5 52.1667,24.5 50.5,24.5C 50.5,21.8333 50.5,19.1667 50.5,16.5 Z"/></g>
<g><path style="opacity:0.265" fill="#0b0b0b" d="M 87.5,19.5 C 88.2216,19.9175 88.7216,20.5842 89,21.5C 89.6667,24.1667 89.6667,26.8333 89,29.5C 86.9246,33.0394 84.7579,36.3728 82.5,39.5C 80.6231,38.3409 80.1231,36.6742 81,34.5C 85.9091,30.6823 88.0758,25.6823 87.5,19.5 Z"/></g>
<g><path style="opacity:1" fill="#4c3e6c" d="M 62.5,40.5 C 66.1612,40.3501 67.1612,41.8501 65.5,45C 61.7071,45.4866 60.7071,43.9866 62.5,40.5 Z"/></g>
<g><path style="opacity:0.288" fill="#080808" d="M 94.5,52.5 C 101.399,71.4485 94.7324,79.6151 74.5,77C 72.4156,76.3028 70.7489,75.1361 69.5,73.5C 88.5471,79.1146 96.8804,72.1146 94.5,52.5 Z"/></g>
<g><path style="opacity:1" fill="#4a3d6c" d="M 80.5,56.5 C 84.3404,57.5678 84.5071,59.2345 81,61.5C 79.2116,59.9769 79.0449,58.3102 80.5,56.5 Z"/></g>
<g><path style="opacity:0.277" fill="#0b0b0b" d="M 65.5,70.5 C 63.2362,69.7814 60.9029,69.448 58.5,69.5C 57.8116,75.1339 57.3116,80.8005 57,86.5C 56.2458,90.0894 54.0791,92.0894 50.5,92.5C 52.5138,89.8057 54.0138,86.8057 55,83.5C 55.4994,78.1771 55.666,72.8437 55.5,67.5C 58.5184,67.3354 61.5184,67.502 64.5,68C 65.2524,68.6708 65.5858,69.5041 65.5,70.5 Z"/></g>
<g><path style="opacity:0.26" fill="#000000" d="M 6.5,72.5 C 8.85684,72.3367 11.1902,72.5034 13.5,73C 14.056,73.3826 14.3893,73.8826 14.5,74.5C 11.4467,74.8893 8.78003,74.2227 6.5,72.5 Z"/></g>
</svg>
