<?xml version="1.0" encoding="UTF-8"?>
<!DOCTYPE svg PUBLIC "-//W3C//DTD SVG 1.1//EN" "http://www.w3.org/Graphics/SVG/1.1/DTD/svg11.dtd">
<svg xmlns="http://www.w3.org/2000/svg" version="1.1" width="100px" height="100px" style="shape-rendering:geometricPrecision; text-rendering:geometricPrecision; image-rendering:optimizeQuality; fill-rule:evenodd; clip-rule:evenodd" xmlns:xlink="http://www.w3.org/1999/xlink">
<g><path style="opacity:0.843" fill="#26252d" d="M 64.5,10.5 C 65.1174,10.6107 65.6174,10.944 66,11.5C 66.1575,13.9951 66.3241,16.3284 66.5,18.5C 73.2843,17.4181 76.951,20.4181 77.5,27.5C 77.0983,30.3066 76.5983,32.9732 76,35.5C 78.8599,41.3655 82.8599,46.3655 88,50.5C 89.2999,55.2257 88.7999,59.8924 86.5,64.5C 82.5411,65.6599 78.5411,65.8265 74.5,65C 72.5448,64.0467 70.8782,62.7134 69.5,61C 63.0499,61.1898 57.5499,59.0231 53,54.5C 51.3333,55.5 50,56.8333 49,58.5C 49.4478,66.8579 49.2811,75.1913 48.5,83.5C 31.523,81.2382 19.3564,72.2382 12,56.5C 10.2866,48.9329 11.9533,42.2662 17,36.5C 26.5524,25.14 38.719,18.64 53.5,17C 56.6475,13.7666 60.3142,11.6 64.5,10.5 Z"/></g>
<g><path style="opacity:1" fill="#e5a56f" d="M 65.5,27.5 C 66.5137,28.6737 67.847,29.3404 69.5,29.5C 70.1667,30.8333 71.1667,31.8333 72.5,32.5C 74.9748,40.1592 79.3081,46.6592 85.5,52C 85.4143,55.1133 85.081,58.28 84.5,61.5C 79.5048,64.5219 75.1715,63.6886 71.5,59C 63.8419,59.5107 57.8419,56.6773 53.5,50.5C 50.4782,52.6881 47.9782,55.3548 46,58.5C 45.3296,63.7977 45.8296,68.9644 47.5,74C 47.275,76.5281 46.9416,79.0281 46.5,81.5C 34.8912,78.8632 25.8912,72.5299 19.5,62.5C 21.3433,60.1469 22.6766,57.4802 23.5,54.5C 24.4582,52.6976 25.1249,50.6976 25.5,48.5C 26.1378,52.4271 26.9711,56.4271 28,60.5C 30.2379,58.6909 31.4046,56.3576 31.5,53.5C 33.4666,47.9998 35.2999,42.3332 37,36.5C 37.4955,38.4727 37.6621,40.4727 37.5,42.5C 37.5,43.1667 37.8333,43.5 38.5,43.5C 38.281,44.675 38.6143,45.675 39.5,46.5C 41.6582,43.8515 42.9916,40.8515 43.5,37.5C 45.2927,35.5739 46.2927,33.2406 46.5,30.5C 48.4854,27.2024 50.4854,23.8691 52.5,20.5C 55.1319,19.1011 57.4653,17.2678 59.5,15C 60.9437,14.2195 62.277,14.3861 63.5,15.5C 62.0269,18.7152 61.5269,22.0486 62,25.5C 62.8159,26.8228 63.9826,27.4894 65.5,27.5 Z"/></g>
<g><path style="opacity:1" fill="#ad7146" d="M 72.5,32.5 C 72.5,30.5 71.5,29.5 69.5,29.5C 67.847,29.3404 66.5137,28.6737 65.5,27.5C 64.3146,26.1434 63.3146,24.6434 62.5,23C 62.7591,21.7387 63.4258,20.7387 64.5,20C 73.7792,18.9354 77.2792,22.7687 75,31.5C 74.3292,32.2524 73.4959,32.5858 72.5,32.5 Z"/></g>
<g><path style="opacity:1" fill="#b17447" d="M 47.5,20.5 C 48.675,20.281 49.675,20.6143 50.5,21.5C 48.3418,24.1485 47.0084,27.1485 46.5,30.5C 44.7073,32.4261 43.7073,34.7594 43.5,37.5C 42.291,39.9408 40.6243,41.9408 38.5,43.5C 37.8333,43.5 37.5,43.1667 37.5,42.5C 38.1758,38.5463 39.1758,34.5463 40.5,30.5C 40.3333,30.1667 40.1667,29.8333 40,29.5C 35.0948,36.7128 32.2614,44.7128 31.5,53.5C 30.4415,54.6002 29.6082,55.9336 29,57.5C 28.6667,57.1667 28.3333,56.8333 28,56.5C 27.5205,51.7002 27.8539,47.0335 29,42.5C 27.0527,44.0634 25.886,46.0634 25.5,48.5C 25.1249,50.6976 24.4582,52.6976 23.5,54.5C 23.631,53.7611 23.4643,53.0944 23,52.5C 21.9305,55.2081 20.7639,57.8747 19.5,60.5C 19.0431,61.2975 18.3764,61.6309 17.5,61.5C 12.0671,54.0029 12.2338,46.6695 18,39.5C 25.8442,29.9995 35.6776,23.6661 47.5,20.5 Z"/></g>
<g><path style="opacity:1" fill="#5f483c" d="M 47.5,20.5 C 49.1667,19.1667 50.8333,19.1667 52.5,20.5C 50.4854,23.8691 48.4854,27.2024 46.5,30.5C 47.0084,27.1485 48.3418,24.1485 50.5,21.5C 49.675,20.6143 48.675,20.281 47.5,20.5 Z"/></g>
<g><path style="opacity:0.953" fill="#443633" d="M 69.5,29.5 C 71.5,29.5 72.5,30.5 72.5,32.5C 71.1667,31.8333 70.1667,30.8333 69.5,29.5 Z"/></g>
<g><path style="opacity:1" fill="#5a463c" d="M 46.5,30.5 C 46.2927,33.2406 45.2927,35.5739 43.5,37.5C 43.7073,34.7594 44.7073,32.4261 46.5,30.5 Z"/></g>
<g><path style="opacity:1" fill="#493b37" d="M 37.5,42.5 C 37.6621,40.4727 37.4955,38.4727 37,36.5C 35.2999,42.3332 33.4666,47.9998 31.5,53.5C 32.2614,44.7128 35.0948,36.7128 40,29.5C 40.1667,29.8333 40.3333,30.1667 40.5,30.5C 39.1758,34.5463 38.1758,38.5463 37.5,42.5 Z"/></g>
<g><path style="opacity:1" fill="#2f2b30" d="M 65.5,36.5 C 69.1612,36.3501 70.1612,37.8501 68.5,41C 64.7071,41.4866 63.7071,39.9866 65.5,36.5 Z"/></g>
<g><path style="opacity:1" fill="#58453c" d="M 43.5,37.5 C 42.9916,40.8515 41.6582,43.8515 39.5,46.5C 38.6143,45.675 38.281,44.675 38.5,43.5C 40.6243,41.9408 42.291,39.9408 43.5,37.5 Z"/></g>
<g><path style="opacity:1" fill="#4a3b36" d="M 31.5,53.5 C 31.4046,56.3576 30.2379,58.6909 28,60.5C 26.9711,56.4271 26.1378,52.4271 25.5,48.5C 25.886,46.0634 27.0527,44.0634 29,42.5C 27.8539,47.0335 27.5205,51.7002 28,56.5C 28.3333,56.8333 28.6667,57.1667 29,57.5C 29.6082,55.9336 30.4415,54.6002 31.5,53.5 Z"/></g>
<g><path style="opacity:1" fill="#795d49" d="M 48.5,49.5 C 49.0024,47.9153 50.0024,47.4153 51.5,48C 50.7562,49.0386 49.7562,49.5386 48.5,49.5 Z"/></g>
<g><path style="opacity:1" fill="#735948" d="M 48.5,49.5 C 48.4894,51.6859 47.4894,52.5192 45.5,52C 46.3734,50.955 47.3734,50.1217 48.5,49.5 Z"/></g>
<g><path style="opacity:1" fill="#665044" d="M 42.5,67.5 C 41.3592,64.3601 41.1925,61.0267 42,57.5C 42.4186,56.3279 43.0853,55.3279 44,54.5C 43.0929,58.6989 42.5929,63.0323 42.5,67.5 Z"/></g>
<g><path style="opacity:1" fill="#5c473c" d="M 23.5,54.5 C 22.6766,57.4802 21.3433,60.1469 19.5,62.5C 18.5084,62.6716 17.8417,62.3382 17.5,61.5C 18.3764,61.6309 19.0431,61.2975 19.5,60.5C 20.7639,57.8747 21.9305,55.2081 23,52.5C 23.4643,53.0944 23.631,53.7611 23.5,54.5 Z"/></g>
<g><path style="opacity:1" fill="#433938" d="M 42.5,67.5 C 44.3371,70.519 44.8371,73.8524 44,77.5C 43.3897,74.1727 42.8897,70.8394 42.5,67.5 Z"/></g>
</svg>
