<svg version="1.1" id="Layer_1" xmlns="http://www.w3.org/2000/svg" xmlns:xlink="http://www.w3.org/1999/xlink" x="0px" y="0px"
	 width="100%" viewBox="0 0 512 512" enable-background="new 0 0 512 512" xml:space="preserve">
<path fill="#000000" opacity="1.000000" stroke="none" 
	d="
M513.000000,57.000000 
	C513.000000,208.938538 513.000000,360.877075 513.000000,512.907837 
	C342.333344,512.907837 171.666687,512.907837 1.000000,512.907837 
	C1.000000,477.905731 1.000000,442.919830 1.379945,407.314026 
	C5.881898,410.449615 10.888438,409.427582 15.442603,408.560638 
	C34.716145,404.891571 46.323402,389.648590 46.077549,370.103912 
	C45.759300,344.804321 45.869183,319.496735 46.060436,294.194580 
	C46.143593,283.193481 50.114960,273.376556 56.899826,264.739319 
	C57.324532,264.198639 58.423367,264.187561 59.118965,264.349548 
	C55.916550,279.979340 54.977730,295.128845 57.846878,310.614685 
	C61.134106,328.357056 67.613335,344.487549 78.362366,358.959717 
	C79.565636,360.579742 80.934837,362.696259 80.876152,364.539520 
	C80.163666,386.917236 85.628288,389.942108 66.701439,406.109955 
	C64.105568,408.327423 62.248653,412.878326 62.201519,416.377899 
	C61.836308,443.496185 61.984642,470.621643 62.016968,497.744781 
	C62.021751,501.756866 65.095352,504.955597 69.011147,504.972961 
	C76.329269,505.005432 83.648117,504.876404 91.430984,504.899048 
	C97.727745,504.993286 103.612839,504.509216 109.380798,505.123962 
	C119.003136,506.149658 123.986839,497.387634 119.834625,488.800507 
	C113.910332,476.548584 110.421677,464.015656 112.006783,450.334900 
	C112.082985,449.677155 112.085495,448.994507 112.005867,448.337585 
	C111.188469,441.593719 114.548111,437.797028 120.366280,434.853577 
	C134.373337,427.767273 146.370209,418.163849 156.153336,405.689667 
	C166.164902,392.924133 171.466583,378.601196 172.337433,362.021912 
	C179.371490,362.021912 186.347336,362.370850 193.267624,361.901184 
	C198.006653,361.579590 201.396210,363.411407 204.747910,366.250092 
	C226.754089,384.887695 250.982025,399.621918 278.956512,407.437866 
	C297.346832,412.576019 315.761017,412.813629 333.964905,406.553284 
	C334.060577,408.469757 334.035339,409.968811 334.214081,411.443146 
	C335.452179,421.656769 337.497955,431.840302 337.831818,442.080841 
	C338.428162,460.372284 337.983490,478.697144 338.009186,497.007996 
	C338.017548,502.974609 340.027100,504.985901 345.995361,504.986084 
	C352.317993,504.986267 358.640594,504.872681 365.427795,504.893890 
	C371.558075,504.991882 377.224792,505.078491 382.889099,504.995789 
	C387.987823,504.921326 392.795074,500.833069 391.764160,496.025909 
	C390.467010,489.977325 387.268555,484.351715 385.079926,478.473083 
	C383.856812,475.187775 382.151703,471.763641 382.136200,468.395264 
	C381.937378,425.236145 382.220367,382.073853 381.820892,338.917511 
	C381.742218,330.412720 383.903900,323.168182 387.971497,316.062744 
	C390.804901,311.113220 393.342834,305.994995 396.034149,300.963562 
	C398.019531,297.251923 400.039398,293.558685 402.505676,289.923401 
	C412.327209,289.659943 421.933563,290.556580 430.993347,288.734985 
	C447.732727,285.369293 459.068359,274.969208 465.162537,258.645874 
	C469.412933,247.261154 467.553650,235.695206 467.897247,223.688721 
	C467.985596,216.559158 468.106140,209.899979 467.970581,203.246017 
	C467.811371,195.431061 471.494080,190.052521 478.125671,186.413834 
	C482.671448,183.919632 487.343842,181.641602 491.788055,178.980392 
	C498.226410,175.125000 504.987030,170.925888 505.562042,162.632950 
	C506.237762,152.886597 505.938782,143.044037 505.531494,133.265305 
	C505.367706,129.332275 504.235535,125.283600 502.778473,121.589531 
	C498.338379,110.332581 493.525574,99.222641 488.997253,87.731979 
	C499.435974,79.754219 507.875000,70.728012 511.149597,57.825462 
	C511.252533,57.419891 512.360535,57.269405 513.000000,57.000000 
z"/>
<path fill="#000000" opacity="1.000000" stroke="none" 
	d="
M0.999997,286.000000 
	C1.000000,191.050552 1.000000,96.101120 1.000000,1.075840 
	C171.666641,1.075840 342.333313,1.075840 513.000000,1.075701 
	C513.000000,9.071256 513.000000,17.066948 512.703186,25.872059 
	C508.521088,20.067165 507.477753,19.325977 499.103363,22.606106 
	C490.888641,25.823689 482.584747,29.358015 475.295410,34.216736 
	C469.725861,37.929146 465.678223,43.924786 460.572510,48.799347 
	C451.827515,48.104008 443.463562,47.514091 435.058716,46.467331 
	C435.638123,36.353199 433.969849,27.415289 427.360535,19.818832 
	C418.954956,10.157794 408.163177,7.840454 395.602631,9.137690 
	C385.006958,9.036897 374.877869,8.945856 364.750305,9.034030 
	C359.793762,9.077183 355.495667,10.821581 352.475006,14.988517 
	C349.593323,18.963757 346.752075,22.968281 343.518921,26.967155 
	C337.838959,25.019613 332.619293,22.759127 327.193695,21.228941 
	C324.119263,20.361862 320.247314,20.072124 319.220123,24.553419 
	C316.254669,37.490944 315.756622,50.364407 320.690186,63.106800 
	C312.774292,75.135216 305.243378,87.054131 297.539062,98.859894 
	C277.291992,129.885696 256.964630,160.859085 236.678986,191.859756 
	C227.077576,206.532684 217.498505,221.220245 207.449707,235.943512 
	C203.157776,235.990341 199.292023,236.299973 195.505692,235.884949 
	C193.232819,235.635803 190.567245,234.804810 188.962708,233.295166 
	C178.071014,223.047882 165.377029,215.788300 151.312363,211.240723 
	C136.807770,206.550949 121.936020,205.502350 106.603500,210.103790 
	C97.877014,210.346268 89.539482,210.065979 81.373123,211.116440 
	C62.429367,213.553207 46.023094,221.904358 31.935993,234.635132 
	C17.120518,248.024139 7.493274,264.584747 2.927733,284.071442 
	C2.751519,284.823578 1.663264,285.362000 0.999997,286.000000 
z"/>
<path fill="#8C5E5E" opacity="1.000000" stroke="none" 
	d="
M0.999997,286.468658 
	C1.663264,285.362000 2.751519,284.823578 2.927733,284.071442 
	C7.493274,264.584747 17.120518,248.024139 31.935993,234.635132 
	C46.023094,221.904358 62.429367,213.553207 81.373123,211.116440 
	C89.539482,210.065979 97.877014,210.346268 106.321075,210.312439 
	C93.216370,215.112183 81.700333,222.487106 74.087433,234.296188 
	C68.472603,243.005875 64.562019,252.814255 59.548779,262.279266 
	C59.169079,262.968140 59.132683,263.510834 59.093990,263.995056 
	C59.091694,263.936554 59.208580,263.930084 59.208580,263.930084 
	C58.423367,264.187561 57.324532,264.198639 56.899826,264.739319 
	C50.114960,273.376556 46.143593,283.193481 46.060436,294.194580 
	C45.869183,319.496735 45.759300,344.804321 46.077549,370.103912 
	C46.323402,389.648590 34.716145,404.891571 15.442603,408.560638 
	C10.888438,409.427582 5.881898,410.449615 1.379945,406.847046 
	C1.000000,366.979095 1.000000,326.958221 0.999997,286.468658 
z"/>
<path fill="#E5936A" opacity="1.000000" stroke="none" 
	d="
M460.953583,48.904778 
	C465.678223,43.924786 469.725861,37.929146 475.295410,34.216736 
	C482.584747,29.358015 490.888641,25.823689 499.103363,22.606106 
	C507.477753,19.325977 508.521088,20.067165 512.703186,26.340736 
	C513.000000,36.020893 513.000000,46.041790 513.000000,56.531342 
	C512.360535,57.269405 511.252533,57.419891 511.149597,57.825462 
	C507.875000,70.728012 499.435974,79.754219 488.733948,87.518814 
	C485.898560,83.101952 483.253296,78.674286 481.077087,74.026985 
	C476.382874,64.002548 471.573181,54.149982 460.953583,48.904778 
z"/>
<path fill="#E5936A" opacity="1.000000" stroke="none" 
	d="
M59.892082,262.133087 
	C64.562019,252.814255 68.472603,243.005875 74.087433,234.296188 
	C81.700333,222.487106 93.216370,215.112183 106.787796,210.394226 
	C121.936020,205.502350 136.807770,206.550949 151.312363,211.240723 
	C165.377029,215.788300 178.071014,223.047882 188.962708,233.295166 
	C190.567245,234.804810 193.232819,235.635803 195.505692,235.884949 
	C199.292023,236.299973 203.157776,235.990341 207.921143,235.994568 
	C225.477478,236.027420 242.104904,236.182755 258.725494,235.914536 
	C260.873535,235.879883 263.764557,234.179398 264.992096,232.360291 
	C274.754517,217.893158 284.162994,203.187836 293.748871,188.600800 
	C303.782745,173.332001 313.893036,158.113419 323.991760,143.342316 
	C324.379456,149.257492 324.542877,154.726532 325.165314,160.142792 
	C325.854858,166.143250 328.279236,171.293152 333.761261,174.540848 
	C340.166534,178.335541 346.446136,182.357269 352.974274,185.925491 
	C359.560944,189.525650 363.119446,194.642380 363.027771,202.280502 
	C362.940277,209.575073 363.090668,216.872513 363.106934,224.624390 
	C363.062347,228.901505 363.200562,232.730713 363.006317,236.542984 
	C362.046783,255.378006 368.817749,270.594086 383.740356,282.136902 
	C377.676056,293.175385 372.160583,304.167358 366.005585,314.788727 
	C361.337402,322.844299 359.767639,331.144745 359.843506,340.430389 
	C360.187225,382.508423 360.063660,424.591064 359.910034,466.671356 
	C359.889740,472.230194 361.002899,477.117920 364.097931,481.701721 
	C369.146851,489.179382 372.894684,496.802246 364.963226,504.808777 
	C358.640594,504.872681 352.317993,504.986267 345.995361,504.986084 
	C340.027100,504.985901 338.017548,502.974609 338.009186,497.007996 
	C337.983490,478.697144 338.428162,460.372284 337.831818,442.080841 
	C337.497955,431.840302 335.452179,421.656769 334.214081,411.443146 
	C334.035339,409.968811 334.060577,408.469757 333.965912,406.129089 
	C332.936920,399.039032 331.874969,392.810608 330.954376,386.561371 
	C330.490021,383.409271 328.729950,383.134094 325.962097,383.437958 
	C311.931152,384.978333 298.050903,384.039551 284.411194,380.280640 
	C259.510345,373.418213 236.842346,361.740387 216.714462,345.885284 
	C203.153091,335.202820 189.790634,326.710541 171.628296,329.779388 
	C169.868515,330.076752 167.162430,328.128265 165.745956,326.487976 
	C161.076981,321.081207 153.355423,320.545044 148.061050,325.336945 
	C143.289032,329.656097 144.165695,334.693115 145.232101,340.081299 
	C149.125580,359.753540 145.358597,377.708801 132.954071,393.709351 
	C124.527504,404.578766 113.938271,412.810852 101.819542,419.018921 
	C85.191299,427.537079 87.037582,425.527069 87.019104,443.649994 
	C87.004585,457.889404 85.394882,472.320404 93.271179,485.483795 
	C97.317223,492.245789 97.507889,499.061798 90.966660,504.814575 
	C83.648117,504.876404 76.329269,505.005432 69.011147,504.972961 
	C65.095352,504.955597 62.021751,501.756866 62.016968,497.744781 
	C61.984642,470.621643 61.836308,443.496185 62.201519,416.377899 
	C62.248653,412.878326 64.105568,408.327423 66.701439,406.109955 
	C85.628288,389.942108 80.163666,386.917236 80.876152,364.539520 
	C80.934837,362.696259 79.565636,360.579742 78.362366,358.959717 
	C67.613335,344.487549 61.134106,328.357056 57.846878,310.614685 
	C54.977730,295.128845 55.916550,279.979340 59.118965,264.349548 
	C59.208580,263.930084 59.091694,263.936554 59.368858,263.883057 
	C59.728043,263.264038 59.810062,262.698578 59.892082,262.133087 
z"/>
<path fill="#EAAB8A" opacity="1.000000" stroke="none" 
	d="
M363.136475,224.168686 
	C363.090668,216.872513 362.940277,209.575073 363.027771,202.280502 
	C363.119446,194.642380 359.560944,189.525650 352.974274,185.925491 
	C346.446136,182.357269 340.166534,178.335541 333.761261,174.540848 
	C328.279236,171.293152 325.854858,166.143250 325.165314,160.142792 
	C324.542877,154.726532 324.379456,149.257492 324.083984,142.959503 
	C326.957397,131.623749 329.294891,120.985451 332.711945,110.706024 
	C335.407440,102.597206 339.431763,94.930107 343.098053,86.797165 
	C350.613983,73.142830 354.594940,57.491062 369.469025,49.048531 
	C378.579773,48.421589 387.284912,47.784145 396.133911,47.480019 
	C401.345703,65.393898 409.924530,71.716621 427.486572,71.168999 
	C431.502747,71.043762 432.957458,69.484940 433.171265,65.514694 
	C433.505859,59.301258 434.426971,53.119404 435.099640,46.924171 
	C443.463562,47.514091 451.827515,48.104008 460.572510,48.799355 
	C471.573181,54.149982 476.382874,64.002548 481.077087,74.026985 
	C483.253296,78.674286 485.898560,83.101952 488.594513,87.842339 
	C493.525574,99.222641 498.338379,110.332581 502.778473,121.589531 
	C504.235535,125.283600 505.367706,129.332275 505.531494,133.265305 
	C505.938782,143.044037 506.237762,152.886597 505.562042,162.632950 
	C504.987030,170.925888 498.226410,175.125000 491.788055,178.980392 
	C487.343842,181.641602 482.671448,183.919632 478.125671,186.413834 
	C471.494080,190.052521 467.811371,195.431061 467.970581,203.246017 
	C468.106140,209.899979 467.985596,216.559158 467.608582,223.517914 
	C466.177429,222.765778 465.119019,221.708694 464.054138,220.658218 
	C447.435028,204.264389 427.640228,197.434448 404.444183,200.903824 
	C387.722656,203.404831 374.372833,211.916397 363.136475,224.168686 
M461.389374,111.084068 
	C458.670380,108.399094 455.429443,107.990852 452.257874,109.759033 
	C447.902740,112.187057 448.045105,116.572304 448.377869,120.780876 
	C448.661072,124.362404 450.288208,127.132339 453.953705,128.244034 
	C457.901062,129.441208 462.472290,127.089325 462.972046,122.763260 
	C463.388245,119.160667 462.313049,115.385796 461.389374,111.084068 
M367.264221,115.192940 
	C367.316803,117.665833 366.988800,120.222206 367.508820,122.592560 
	C368.344452,126.401695 371.041473,128.726151 375.016693,128.490738 
	C379.166718,128.244934 381.638519,125.739555 382.030090,121.482185 
	C382.151031,120.166985 382.070160,118.834274 382.111755,117.510521 
	C382.238525,113.475487 380.990509,110.146927 376.736755,109.119469 
	C372.194916,108.022423 369.002197,109.906204 367.264221,115.192940 
z"/>
<path fill="#C77E67" opacity="1.000000" stroke="none" 
	d="
M91.430984,504.899048 
	C97.507889,499.061798 97.317223,492.245789 93.271179,485.483795 
	C85.394882,472.320404 87.004585,457.889404 87.019104,443.649994 
	C87.037582,425.527069 85.191299,427.537079 101.819542,419.018921 
	C113.938271,412.810852 124.527504,404.578766 132.954071,393.709351 
	C145.358597,377.708801 149.125580,359.753540 145.232101,340.081299 
	C144.165695,334.693115 143.289032,329.656097 148.061050,325.336945 
	C153.355423,320.545044 161.076981,321.081207 165.745956,326.487976 
	C167.162430,328.128265 169.868515,330.076752 171.628296,329.779388 
	C189.790634,326.710541 203.153091,335.202820 216.714462,345.885284 
	C236.842346,361.740387 259.510345,373.418213 284.411194,380.280640 
	C298.050903,384.039551 311.931152,384.978333 325.962097,383.437958 
	C328.729950,383.134094 330.490021,383.409271 330.954376,386.561371 
	C331.874969,392.810608 332.936920,399.039032 333.939423,405.700256 
	C315.761017,412.813629 297.346832,412.576019 278.956512,407.437866 
	C250.982025,399.621918 226.754089,384.887695 204.747910,366.250092 
	C201.396210,363.411407 198.006653,361.579590 193.267624,361.901184 
	C186.347336,362.370850 179.371490,362.021912 172.337433,362.021912 
	C171.466583,378.601196 166.164902,392.924133 156.153336,405.689667 
	C146.370209,418.163849 134.373337,427.767273 120.366280,434.853577 
	C114.548111,437.797028 111.188469,441.593719 112.005867,448.337585 
	C112.085495,448.994507 112.082985,449.677155 112.006783,450.334900 
	C110.421677,464.015656 113.910332,476.548584 119.834625,488.800507 
	C123.986839,497.387634 119.003136,506.149658 109.380798,505.123962 
	C103.612839,504.509216 97.727745,504.993286 91.430984,504.899048 
z"/>
<path fill="#FFEEE7" opacity="1.000000" stroke="none" 
	d="
M363.106934,224.624390 
	C374.372833,211.916397 387.722656,203.404831 404.444183,200.903824 
	C427.640228,197.434448 447.435028,204.264389 464.054138,220.658218 
	C465.119019,221.708694 466.177429,222.765778 467.527466,223.990601 
	C467.553650,235.695206 469.412933,247.261154 465.162537,258.645874 
	C459.068359,274.969208 447.732727,285.369293 430.993347,288.734985 
	C421.933563,290.556580 412.327209,289.659943 402.292999,289.634216 
	C395.750458,286.829590 389.882355,284.380310 384.014252,281.931061 
	C368.817749,270.594086 362.046783,255.378006 363.006317,236.542984 
	C363.200562,232.730713 363.062347,228.901505 363.106934,224.624390 
M440.496399,244.270432 
	C440.960022,243.811844 441.387054,243.307663 441.893005,242.901886 
	C446.094727,239.532333 447.080658,235.788330 444.692078,232.180069 
	C442.380188,228.687698 437.944794,227.803436 433.594910,230.094055 
	C428.634186,232.706329 426.165802,237.073532 425.365570,242.456284 
	C424.587952,247.686676 427.338928,251.952896 431.813049,252.671555 
	C436.062347,253.354095 439.224426,250.497742 440.496399,244.270432 
M385.007019,238.041016 
	C387.370209,242.025116 389.302673,246.380157 392.279053,249.836121 
	C393.758057,251.553375 397.444397,252.706512 399.599792,252.128738 
	C401.760925,251.549438 404.208618,248.770096 404.864685,246.478088 
	C406.603851,240.402252 402.769043,233.055130 397.174561,230.123627 
	C390.702606,226.732300 385.360657,229.830902 385.007019,238.041016 
z"/>
<path fill="#C77E67" opacity="1.000000" stroke="none" 
	d="
M383.740356,282.136902 
	C389.882355,284.380310 395.750458,286.829590 401.831238,289.568054 
	C400.039398,293.558685 398.019531,297.251923 396.034149,300.963562 
	C393.342834,305.994995 390.804901,311.113220 387.971497,316.062744 
	C383.903900,323.168182 381.742218,330.412720 381.820892,338.917511 
	C382.220367,382.073853 381.937378,425.236145 382.136200,468.395264 
	C382.151703,471.763641 383.856812,475.187775 385.079926,478.473083 
	C387.268555,484.351715 390.467010,489.977325 391.764160,496.025909 
	C392.795074,500.833069 387.987823,504.921326 382.889099,504.995789 
	C377.224792,505.078491 371.558075,504.991882 365.427795,504.893890 
	C372.894684,496.802246 369.146851,489.179382 364.097931,481.701721 
	C361.002899,477.117920 359.889740,472.230194 359.910034,466.671356 
	C360.063660,424.591064 360.187225,382.508423 359.843506,340.430389 
	C359.767639,331.144745 361.337402,322.844299 366.005585,314.788727 
	C372.160583,304.167358 377.676056,293.175385 383.740356,282.136902 
z"/>
<path fill="#8C5E5E" opacity="1.000000" stroke="none" 
	d="
M342.865875,87.066818 
	C339.431763,94.930107 335.407440,102.597206 332.711945,110.706024 
	C329.294891,120.985451 326.957397,131.623749 324.062134,142.490082 
	C313.893036,158.113419 303.782745,173.332001 293.748871,188.600800 
	C284.162994,203.187836 274.754517,217.893158 264.992096,232.360291 
	C263.764557,234.179398 260.873535,235.879883 258.725494,235.914536 
	C242.104904,236.182755 225.477478,236.027420 208.380737,235.952225 
	C217.498505,221.220245 227.077576,206.532684 236.678986,191.859756 
	C256.964630,160.859085 277.291992,129.885696 297.539062,98.859894 
	C305.243378,87.054131 312.774292,75.135216 320.966309,63.314743 
	C326.524078,73.178917 333.210785,81.457558 342.865875,87.066818 
z"/>
<path fill="#AA7F7F" opacity="1.000000" stroke="none" 
	d="
M435.058716,46.467331 
	C434.426971,53.119404 433.505859,59.301258 433.171265,65.514694 
	C432.957458,69.484940 431.502747,71.043762 427.486572,71.168999 
	C409.924530,71.716621 401.345703,65.393898 396.148529,47.001060 
	C395.731262,40.425362 395.198212,34.661007 395.220032,28.898754 
	C395.244873,22.338610 395.764984,15.780339 396.069824,9.221254 
	C408.163177,7.840454 418.954956,10.157794 427.360535,19.818832 
	C433.969849,27.415289 435.638123,36.353199 435.058716,46.467331 
z"/>
<path fill="#E5936A" opacity="1.000000" stroke="none" 
	d="
M343.098053,86.797165 
	C333.210785,81.457558 326.524078,73.178917 321.272247,63.153667 
	C315.756622,50.364407 316.254669,37.490944 319.220123,24.553419 
	C320.247314,20.072124 324.119263,20.361862 327.193695,21.228941 
	C332.619293,22.759127 337.838959,25.019613 343.690186,27.272152 
	C345.754120,28.547310 347.232910,29.594172 348.797974,30.490423 
	C356.946533,35.156902 364.199310,40.788750 369.063385,49.038033 
	C354.594940,57.491062 350.613983,73.142830 343.098053,86.797165 
z"/>
<path fill="#8C5E5E" opacity="1.000000" stroke="none" 
	d="
M369.469025,49.048531 
	C364.199310,40.788750 356.946533,35.156902 348.797974,30.490423 
	C347.232910,29.594172 345.754120,28.547310 344.064270,27.264925 
	C346.752075,22.968281 349.593323,18.963757 352.475006,14.988517 
	C355.495667,10.821581 359.793762,9.077183 364.750305,9.034030 
	C374.877869,8.945856 385.006958,9.036897 395.602631,9.137690 
	C395.764984,15.780339 395.244873,22.338610 395.220032,28.898754 
	C395.198212,34.661007 395.731262,40.425362 396.004639,46.667740 
	C387.284912,47.784145 378.579773,48.421589 369.469025,49.048531 
z"/>
<path fill="#000000" opacity="1.000000" stroke="none" 
	d="
M59.548782,262.279266 
	C59.810062,262.698578 59.728043,263.264038 59.371155,263.941528 
	C59.132683,263.510834 59.169079,262.968140 59.548782,262.279266 
z"/>
<path fill="#8F605F" opacity="1.000000" stroke="none" 
	d="
M461.643921,111.385651 
	C462.313049,115.385796 463.388245,119.160667 462.972046,122.763260 
	C462.472290,127.089325 457.901062,129.441208 453.953705,128.244034 
	C450.288208,127.132339 448.661072,124.362404 448.377869,120.780876 
	C448.045105,116.572304 447.902740,112.187057 452.257874,109.759033 
	C455.429443,107.990852 458.670380,108.399094 461.643921,111.385651 
z"/>
<path fill="#8E605F" opacity="1.000000" stroke="none" 
	d="
M367.363831,114.794083 
	C369.002197,109.906204 372.194916,108.022423 376.736755,109.119469 
	C380.990509,110.146927 382.238525,113.475487 382.111755,117.510521 
	C382.070160,118.834274 382.151031,120.166985 382.030090,121.482185 
	C381.638519,125.739555 379.166718,128.244934 375.016693,128.490738 
	C371.041473,128.726151 368.344452,126.401695 367.508820,122.592560 
	C366.988800,120.222206 367.316803,117.665833 367.363831,114.794083 
z"/>
<path fill="#AC8282" opacity="1.000000" stroke="none" 
	d="
M440.398773,244.637299 
	C439.224426,250.497742 436.062347,253.354095 431.813049,252.671555 
	C427.338928,251.952896 424.587952,247.686676 425.365570,242.456284 
	C426.165802,237.073532 428.634186,232.706329 433.594910,230.094055 
	C437.944794,227.803436 442.380188,228.687698 444.692078,232.180069 
	C447.080658,235.788330 446.094727,239.532333 441.893005,242.901886 
	C441.387054,243.307663 440.960022,243.811844 440.398773,244.637299 
z"/>
<path fill="#AC8281" opacity="1.000000" stroke="none" 
	d="
M384.949585,237.644516 
	C385.360657,229.830902 390.702606,226.732300 397.174561,230.123627 
	C402.769043,233.055130 406.603851,240.402252 404.864685,246.478088 
	C404.208618,248.770096 401.760925,251.549438 399.599792,252.128738 
	C397.444397,252.706512 393.758057,251.553375 392.279053,249.836121 
	C389.302673,246.380157 387.370209,242.025116 384.949585,237.644516 
z"/>
</svg>
