<svg version="1.1" id="Layer_1" xmlns="http://www.w3.org/2000/svg" xmlns:xlink="http://www.w3.org/1999/xlink" x="0px" y="0px"
	 width="100%" viewBox="0 0 512 512" enable-background="new 0 0 512 512" xml:space="preserve">
<path fill="#000000" opacity="1.000000" stroke="none" 
	d="
M306.000000,513.000000 
	C204.024765,513.000000 102.549522,513.000000 1.037143,513.000000 
	C1.037143,342.399750 1.037143,171.799469 1.037143,1.099597 
	C171.558578,1.099597 342.117249,1.099597 512.837952,1.099597 
	C512.837952,171.666550 512.837952,342.333252 512.837952,513.000000 
	C444.132782,513.000000 375.316376,513.000000 306.000000,513.000000 
M432.024719,264.060852 
	C439.238342,258.271057 446.480652,252.516510 453.653870,246.677094 
	C457.413574,243.616486 457.032654,240.553467 454.327881,236.601334 
	C433.499115,206.167023 385.838898,196.606979 353.821167,216.899277 
	C344.758484,222.163559 337.414581,229.201385 331.561829,237.912201 
	C329.584534,240.855087 329.645416,242.855820 332.017273,245.653351 
	C346.607574,262.861938 365.250702,271.750427 387.583832,272.901184 
	C402.847382,273.687653 417.733734,271.946655 432.024719,264.060852 
M347.758942,202.946762 
	C367.870789,192.144318 389.187561,188.756302 411.577728,193.087067 
	C434.018585,197.427628 452.346039,208.689545 466.345734,227.514740 
	C467.528351,225.002136 468.478058,223.106689 469.324799,221.166306 
	C477.357391,202.758514 480.919708,183.384308 481.636047,163.424454 
	C482.299042,144.952682 476.270599,128.876923 464.468018,114.691254 
	C459.972260,109.287766 455.638794,105.427155 448.411346,109.721664 
	C447.875366,110.040131 447.117706,109.996109 446.459442,110.096519 
	C438.780243,111.267952 431.100311,112.434761 423.273010,113.625237 
	C422.035706,122.381477 423.362793,130.816803 425.471619,139.291321 
	C428.247375,150.445679 418.697235,161.876022 407.994690,159.467056 
	C387.080231,154.759552 369.070465,144.574097 361.567871,123.482430 
	C358.045380,113.579819 352.810272,111.019310 344.018890,110.952728 
	C343.354523,110.947701 342.690430,110.911423 341.442535,110.440201 
	C338.718445,109.696533 335.890686,109.204559 333.299988,108.137154 
	C330.798553,107.106522 329.159882,107.423462 327.206909,109.382118 
	C317.232941,119.385017 309.938538,130.872940 306.786682,144.782974 
	C303.084717,161.120743 305.475616,177.266357 308.582703,193.324310 
	C310.856598,205.075958 314.547882,216.406784 319.561798,225.900345 
	C328.772156,218.247421 337.909790,210.654938 347.758942,202.946762 
M198.895874,352.766724 
	C209.389282,352.926331 219.882263,353.134583 230.376266,353.229431 
	C238.039642,353.298737 239.947205,354.654236 241.679276,362.242126 
	C245.963058,381.008636 247.876740,399.871857 246.193985,419.224976 
	C244.824005,434.981018 256.972992,448.152527 272.068329,449.122192 
	C288.515167,450.178619 301.403442,439.030121 303.112579,422.675629 
	C305.385376,400.927643 303.631866,379.456818 299.291138,358.126526 
	C297.099762,347.358002 297.592957,346.099304 308.213867,342.570770 
	C337.311646,332.903625 353.671936,312.631805 358.472778,282.345856 
	C325.500305,269.771362 307.976044,243.407379 297.505554,210.988968 
	C296.694855,211.399323 296.202057,211.541092 295.847015,211.844223 
	C286.858734,219.518402 277.685455,226.990982 268.960175,234.954208 
	C258.550446,244.454788 244.519501,241.356201 239.670059,228.105133 
	C238.332031,224.449036 237.161118,220.731750 236.018448,217.352814 
	C227.247437,221.638199 219.022903,226.015228 210.510406,229.732895 
	C197.208649,235.542191 184.776611,226.722794 185.439438,212.166992 
	C185.648636,207.572906 186.231476,202.995819 186.714096,197.622910 
	C178.600281,199.156998 170.824020,200.627274 162.220215,202.003998 
	C150.714767,205.216858 138.555634,206.997406 127.820045,211.897079 
	C87.101715,230.480713 75.857437,292.837372 106.199211,327.373016 
	C108.889275,330.434906 110.991096,334.646179 111.753059,338.631989 
	C113.151558,345.947510 113.397903,353.488708 114.025711,360.944153 
	C114.409035,365.496307 112.565895,368.625977 107.981987,370.009521 
	C107.162720,370.256775 106.174927,371.294312 106.003403,372.120270 
	C104.884834,377.506409 103.904747,382.924805 103.066902,388.361511 
	C102.956230,389.079651 103.709175,390.300140 104.403992,390.713898 
	C109.337387,393.651703 109.288170,397.754181 107.417198,402.399628 
	C106.423729,404.866302 105.500549,407.361237 104.544838,409.843109 
	C98.728607,424.947418 105.481621,441.078735 120.154694,447.130890 
	C134.593140,453.086212 150.683624,446.599091 157.219788,431.948395 
	C159.449249,426.951080 161.270386,421.741852 162.897919,416.511169 
	C168.372513,398.916565 171.247406,380.901672 171.335236,362.443878 
	C171.376770,353.712830 173.665894,351.680420 182.530426,351.964050 
	C187.682343,352.128906 192.832779,352.339050 198.895874,352.766724 
M408.209106,112.145821 
	C410.419739,101.529114 414.113861,98.760628 424.776215,97.869530 
	C432.521210,97.222244 440.251312,95.806824 447.840912,94.085129 
	C453.492645,92.803032 455.311798,88.177650 452.024231,83.425987 
	C449.041260,79.114647 444.963318,75.576508 441.599518,71.506287 
	C439.995605,69.565575 437.552765,66.939568 437.885406,65.044441 
	C438.763367,60.042126 435.947662,58.955173 432.418579,58.342663 
	C427.955414,57.568020 423.424072,57.185829 418.922150,56.634373 
	C419.095673,57.110004 419.269196,57.585636 419.442719,58.061268 
	C417.608215,60.224911 416.141724,63.690311 413.876556,64.330772 
	C403.070068,67.386154 392.857635,71.817162 380.614288,66.931061 
	C363.041931,59.918262 343.826263,67.532883 334.912872,82.630775 
	C331.498688,88.413864 332.952911,92.744301 339.476105,94.347015 
	C345.913544,95.928658 352.510742,96.965820 359.092010,97.828522 
	C366.777130,98.835930 371.053864,102.060768 372.567780,109.594765 
	C376.522400,129.275146 390.351044,138.668884 408.037750,144.144913 
	C408.845245,144.394928 409.836456,144.051590 409.766510,144.056763 
	C409.198517,133.456497 408.651245,123.243027 408.209106,112.145821 
M386.243286,368.248230 
	C378.009613,353.385437 368.368073,339.539825 356.687622,326.728943 
	C347.256866,338.896973 335.392212,347.186493 321.809113,353.193848 
	C314.133545,356.588470 313.352661,358.489746 316.167236,366.554230 
	C316.433289,367.316437 316.884430,368.064636 317.414368,368.676758 
	C327.945831,380.841675 335.735474,394.694550 342.912659,409.013031 
	C350.036438,423.224976 366.764008,428.594299 380.810669,421.748962 
	C394.588745,415.034546 400.608490,398.754791 394.386261,384.485962 
	C392.066010,379.165192 389.239319,374.065277 386.243286,368.248230 
M38.045994,232.744492 
	C37.089474,243.165268 35.704845,253.568207 35.269547,264.010712 
	C34.473339,283.110870 30.055504,300.807953 17.940107,316.116119 
	C14.181318,320.865448 16.009888,325.158386 21.934101,326.272705 
	C31.348564,328.043549 40.143200,326.015503 48.377941,321.411285 
	C59.592415,315.141052 66.953384,305.399536 72.141815,293.946350 
	C73.386246,291.199310 74.057076,287.903564 73.972092,284.888947 
	C73.296722,260.930603 79.279877,239.112854 94.087082,219.983353 
	C94.658401,219.245270 95.008774,218.336166 95.564407,217.319580 
	C86.123863,212.875809 76.453094,210.631714 66.309120,211.298813 
	C52.672443,212.195633 42.435333,218.068146 38.045994,232.744492 
M246.607330,171.154449 
	C238.393204,173.710037 230.313492,176.915878 221.929367,178.649078 
	C212.430405,180.612701 206.100052,185.711960 203.340439,194.642197 
	C201.596924,200.284302 201.110840,206.350327 200.412521,212.267731 
	C199.943069,216.245605 201.931549,217.500290 205.556610,215.609909 
	C213.358521,211.541443 221.279892,207.675766 228.892731,203.277664 
	C238.446609,197.758209 247.246780,201.008911 250.242859,211.541687 
	C251.288025,215.215927 252.437943,218.860641 253.561478,222.512222 
	C254.505447,225.580200 256.140045,226.129776 258.650787,223.967941 
	C269.238983,214.851044 279.915070,205.834351 290.383636,196.582565 
	C291.751953,195.373260 293.043396,192.866180 292.782654,191.210281 
	C289.948578,173.214310 288.156494,155.263718 293.531128,135.778793 
	C278.501404,149.698471 264.411194,162.327637 246.607330,171.154449 
M478.790375,108.754066 
	C480.870056,111.592110 482.949738,114.430153 485.245270,117.562775 
	C492.869354,105.863136 496.581177,93.550896 497.877075,80.552177 
	C498.715485,72.142723 490.215912,66.644920 482.689880,70.556480 
	C478.144989,72.918625 473.889618,75.862419 469.635010,78.738449 
	C468.754028,79.333969 468.035736,80.754059 467.954163,81.847229 
	C467.601685,86.570282 466.165894,91.820648 467.704926,95.907242 
	C469.272461,100.069412 473.867371,103.088562 477.122314,106.621460 
	C477.570190,107.107590 477.934998,107.670258 478.790375,108.754066 
M309.786255,106.318970 
	C314.697601,100.549454 322.118988,95.873596 318.177490,86.301765 
	C317.751312,85.266800 318.833038,83.697319 318.691254,82.434639 
	C318.548340,81.162460 318.103027,79.452843 317.181976,78.819733 
	C312.814453,75.817596 308.411224,72.777733 303.696991,70.390701 
	C296.732056,66.864021 288.550659,71.776421 288.942322,79.451889 
	C289.637634,93.078606 293.868866,105.697289 301.433655,117.558937 
	C304.231171,113.760437 306.774323,110.307327 309.786255,106.318970 
z"/>
<path fill="#E8A982" opacity="1.000000" stroke="none" 
	d="
M163.047760,202.097534 
	C170.824020,200.627274 178.600281,199.156998 186.714096,197.622910 
	C186.231476,202.995819 185.648636,207.572906 185.439438,212.166992 
	C184.776611,226.722794 197.208649,235.542191 210.510406,229.732895 
	C219.022903,226.015228 227.247437,221.638199 236.018448,217.352814 
	C237.161118,220.731750 238.332031,224.449036 239.670059,228.105133 
	C244.519501,241.356201 258.550446,244.454788 268.960175,234.954208 
	C277.685455,226.990982 286.858734,219.518402 295.847015,211.844223 
	C296.202057,211.541092 296.694855,211.399323 297.505554,210.988968 
	C307.976044,243.407379 325.500305,269.771362 358.472778,282.345856 
	C353.671936,312.631805 337.311646,332.903625 308.213867,342.570770 
	C297.592957,346.099304 297.099762,347.358002 299.291138,358.126526 
	C303.631866,379.456818 305.385376,400.927643 303.112579,422.675629 
	C301.403442,439.030121 288.515167,450.178619 272.068329,449.122192 
	C256.972992,448.152527 244.824005,434.981018 246.193985,419.224976 
	C247.876740,399.871857 245.963058,381.008636 241.679276,362.242126 
	C239.947205,354.654236 238.039642,353.298737 230.376266,353.229431 
	C219.882263,353.134583 209.389282,352.926331 198.255341,352.400024 
	C191.935272,345.780884 185.705246,339.938354 180.684296,333.195526 
	C167.988190,316.145416 160.573273,296.610718 156.283051,275.962524 
	C153.143143,260.850555 151.807281,245.445068 155.052048,230.182968 
	C157.071564,220.683868 160.339890,211.450287 163.047760,202.097534 
z"/>
<path fill="#DD8957" opacity="1.000000" stroke="none" 
	d="
M162.633987,202.050766 
	C160.339890,211.450287 157.071564,220.683868 155.052048,230.182968 
	C151.807281,245.445068 153.143143,260.850555 156.283051,275.962524 
	C160.573273,296.610718 167.988190,316.145416 180.684296,333.195526 
	C185.705246,339.938354 191.935272,345.780884 197.799347,352.281067 
	C192.832779,352.339050 187.682343,352.128906 182.530426,351.964050 
	C173.665894,351.680420 171.376770,353.712830 171.335236,362.443878 
	C171.247406,380.901672 168.372513,398.916565 162.897919,416.511169 
	C161.270386,421.741852 159.449249,426.951080 157.219788,431.948395 
	C150.683624,446.599091 134.593140,453.086212 120.154694,447.130890 
	C105.481621,441.078735 98.728607,424.947418 104.544838,409.843109 
	C105.500549,407.361237 106.423729,404.866302 107.417198,402.399628 
	C109.288170,397.754181 109.337387,393.651703 104.403992,390.713898 
	C103.709175,390.300140 102.956230,389.079651 103.066902,388.361511 
	C103.904747,382.924805 104.884834,377.506409 106.003403,372.120270 
	C106.174927,371.294312 107.162720,370.256775 107.981987,370.009521 
	C112.565895,368.625977 114.409035,365.496307 114.025711,360.944153 
	C113.397903,353.488708 113.151558,345.947510 111.753059,338.631989 
	C110.991096,334.646179 108.889275,330.434906 106.199211,327.373016 
	C75.857437,292.837372 87.101715,230.480713 127.820045,211.897079 
	C138.555634,206.997406 150.714767,205.216858 162.633987,202.050766 
z"/>
<path fill="#E8A982" opacity="1.000000" stroke="none" 
	d="
M342.026215,110.889664 
	C342.690430,110.911423 343.354523,110.947701 344.018890,110.952728 
	C352.810272,111.019310 358.045380,113.579819 361.567871,123.482430 
	C369.070465,144.574097 387.080231,154.759552 407.994690,159.467056 
	C418.697235,161.876022 428.247375,150.445679 425.471619,139.291321 
	C423.362793,130.816803 422.035706,122.381477 423.273010,113.625237 
	C431.100311,112.434761 438.780243,111.267952 446.459442,110.096519 
	C447.117706,109.996109 447.875366,110.040131 448.411346,109.721664 
	C455.638794,105.427155 459.972260,109.287766 464.468018,114.691254 
	C476.270599,128.876923 482.299042,144.952682 481.636047,163.424454 
	C480.919708,183.384308 477.357391,202.758514 469.324799,221.166306 
	C468.478058,223.106689 467.528351,225.002136 466.345734,227.514740 
	C452.346039,208.689545 434.018585,197.427628 411.577728,193.087067 
	C389.187561,188.756302 367.870789,192.144318 347.351959,202.635162 
	C344.936066,196.514465 342.927124,190.705353 341.033203,184.528809 
	C341.562103,179.469406 342.013641,174.780334 342.379608,170.084610 
	C342.760315,165.199661 340.782013,161.831406 335.946198,159.924072 
	C335.427460,142.930191 337.078033,126.704231 342.026215,110.889664 
M453.209930,160.813705 
	C447.666687,160.914230 444.775635,162.816223 444.386414,167.430374 
	C444.010071,171.892426 443.986023,176.447495 444.438049,180.897629 
	C444.859100,185.043289 447.680603,187.399658 451.942383,187.464264 
	C455.993591,187.525681 458.936829,184.537384 459.147980,180.104172 
	C459.330109,176.280411 459.189575,172.441711 459.208862,168.609695 
	C459.227692,164.867294 457.635345,162.233383 453.209930,160.813705 
z"/>
<path fill="#d92393" opacity="1.000000" stroke="none" 
	d="
M408.156555,112.587692 
	C408.651245,123.243027 409.198517,133.456497 409.766510,144.056763 
	C409.836456,144.051590 408.845245,144.394928 408.037750,144.144913 
	C390.351044,138.668884 376.522400,129.275146 372.567780,109.594765 
	C371.053864,102.060768 366.777130,98.835930 359.092010,97.828522 
	C352.510742,96.965820 345.913544,95.928658 339.476105,94.347015 
	C332.952911,92.744301 331.498688,88.413864 334.912872,82.630775 
	C343.826263,67.532883 363.041931,59.918262 380.614288,66.931061 
	C392.857635,71.817162 403.070068,67.386154 413.876556,64.330772 
	C416.141724,63.690311 417.608215,60.224911 419.442719,58.061268 
	C419.269196,57.585636 419.095673,57.110004 418.922150,56.634373 
	C423.424072,57.185829 427.955414,57.568020 432.418579,58.342663 
	C435.947662,58.955173 438.763367,60.042126 437.885406,65.044441 
	C437.552765,66.939568 439.995605,69.565575 441.599518,71.506287 
	C444.963318,75.576508 449.041260,79.114647 452.024231,83.425987 
	C455.311798,88.177650 453.492645,92.803032 447.840912,94.085129 
	C440.251312,95.806824 432.521210,97.222244 424.776215,97.869530 
	C414.113861,98.760628 410.419739,101.529114 408.156555,112.587692 
z"/>
<path fill="#DD8957" opacity="1.000000" stroke="none" 
	d="
M386.443420,368.556458 
	C389.239319,374.065277 392.066010,379.165192 394.386261,384.485962 
	C400.608490,398.754791 394.588745,415.034546 380.810669,421.748962 
	C366.764008,428.594299 350.036438,423.224976 342.912659,409.013031 
	C335.735474,394.694550 327.945831,380.841675 317.414368,368.676758 
	C316.884430,368.064636 316.433289,367.316437 316.167236,366.554230 
	C313.352661,358.489746 314.133545,356.588470 321.809113,353.193848 
	C335.392212,347.186493 347.256866,338.896973 356.687622,326.728943 
	C368.368073,339.539825 378.009613,353.385437 386.443420,368.556458 
z"/>
<path fill="#d92393" opacity="1.000000" stroke="none" 
	d="
M38.135880,232.349487 
	C42.435333,218.068146 52.672443,212.195633 66.309120,211.298813 
	C76.453094,210.631714 86.123863,212.875809 95.564407,217.319580 
	C95.008774,218.336166 94.658401,219.245270 94.087082,219.983353 
	C79.279877,239.112854 73.296722,260.930603 73.972092,284.888947 
	C74.057076,287.903564 73.386246,291.199310 72.141815,293.946350 
	C66.953384,305.399536 59.592415,315.141052 48.377941,321.411285 
	C40.143200,326.015503 31.348564,328.043549 21.934101,326.272705 
	C16.009888,325.158386 14.181318,320.865448 17.940107,316.116119 
	C30.055504,300.807953 34.473339,283.110870 35.269547,264.010712 
	C35.704845,253.568207 37.089474,243.165268 38.135880,232.349487 
z"/>
<path fill="#d92393" opacity="1.000000" stroke="none" 
	d="
M246.954941,171.014130 
	C264.411194,162.327637 278.501404,149.698471 293.531128,135.778793 
	C288.156494,155.263718 289.948578,173.214310 292.782654,191.210281 
	C293.043396,192.866180 291.751953,195.373260 290.383636,196.582565 
	C279.915070,205.834351 269.238983,214.851044 258.650787,223.967941 
	C256.140045,226.129776 254.505447,225.580200 253.561478,222.512222 
	C252.437943,218.860641 251.288025,215.215927 250.242859,211.541687 
	C247.246780,201.008911 238.446609,197.758209 228.892731,203.277664 
	C221.279892,207.675766 213.358521,211.541443 205.556610,215.609909 
	C201.931549,217.500290 199.943069,216.245605 200.412521,212.267731 
	C201.110840,206.350327 201.596924,200.284302 203.340439,194.642197 
	C206.100052,185.711960 212.430405,180.612701 221.929367,178.649078 
	C230.313492,176.915878 238.393204,173.710037 246.954941,171.014130 
z"/>
<path fill="#FDEECC" opacity="1.000000" stroke="none" 
	d="
M354.475708,216.766815 
	C385.838898,196.606979 433.499115,206.167023 454.327881,236.601334 
	C457.032654,240.553467 457.413574,243.616486 453.653870,246.677094 
	C446.480652,252.516510 439.238342,258.271057 431.246521,264.060974 
	C423.606232,262.202637 416.608917,260.725830 409.927277,258.358215 
	C405.067200,256.636078 400.624176,253.737015 396.390625,251.245544 
	C403.286835,250.407104 408.865570,247.701981 413.583984,243.219879 
	C417.766113,239.247253 418.395355,234.812607 415.338654,231.427246 
	C412.197510,227.948364 407.950928,228.172119 403.575867,232.047089 
	C397.157257,237.731995 389.758392,237.820663 383.387573,232.289001 
	C377.807129,227.443619 374.916656,227.598465 369.619965,232.961853 
	C367.851959,231.611755 366.300873,230.419144 365.023041,228.983307 
	C361.446777,224.964951 357.983551,220.846039 354.475708,216.766815 
z"/>
<path fill="#DC8856" opacity="1.000000" stroke="none" 
	d="
M341.734375,110.664932 
	C337.078033,126.704231 335.427460,142.930191 335.603027,160.007584 
	C329.365173,161.663971 327.527740,163.692932 327.341400,169.500046 
	C327.250702,172.326569 326.810120,175.283234 327.459473,177.954544 
	C328.189117,180.956131 329.294647,184.469513 331.457489,186.372971 
	C334.429199,188.988205 338.026672,187.283447 340.918213,184.896225 
	C342.927124,190.705353 344.936066,196.514465 346.996216,202.693024 
	C337.909790,210.654938 328.772156,218.247421 319.561798,225.900345 
	C314.547882,216.406784 310.856598,205.075958 308.582703,193.324310 
	C305.475616,177.266357 303.084717,161.120743 306.786682,144.782974 
	C309.938538,130.872940 317.232941,119.385017 327.206909,109.382118 
	C329.159882,107.423462 330.798553,107.106522 333.299988,108.137154 
	C335.890686,109.204559 338.718445,109.696533 341.734375,110.664932 
z"/>
<path fill="#FDEECC" opacity="1.000000" stroke="none" 
	d="
M354.148438,216.833038 
	C357.983551,220.846039 361.446777,224.964951 365.023041,228.983307 
	C366.300873,230.419144 367.851959,231.611755 369.610474,233.321136 
	C370.803314,236.708923 370.822083,240.435120 372.679260,242.536423 
	C378.753479,249.409088 386.980682,251.683044 395.995209,251.362701 
	C400.624176,253.737015 405.067200,256.636078 409.927277,258.358215 
	C416.608917,260.725830 423.606232,262.202637 430.904968,264.104126 
	C417.733734,271.946655 402.847382,273.687653 387.583832,272.901184 
	C365.250702,271.750427 346.607574,262.861938 332.017273,245.653351 
	C329.645416,242.855820 329.584534,240.855087 331.561829,237.912201 
	C337.414581,229.201385 344.758484,222.163559 354.148438,216.833038 
z"/>
<path fill="#DC8856" opacity="1.000000" stroke="none" 
	d="
M478.564331,108.475784 
	C477.934998,107.670258 477.570190,107.107590 477.122314,106.621460 
	C473.867371,103.088562 469.272461,100.069412 467.704926,95.907242 
	C466.165894,91.820648 467.601685,86.570282 467.954163,81.847229 
	C468.035736,80.754059 468.754028,79.333969 469.635010,78.738449 
	C473.889618,75.862419 478.144989,72.918625 482.689880,70.556480 
	C490.215912,66.644920 498.715485,72.142723 497.877075,80.552177 
	C496.581177,93.550896 492.869354,105.863136 485.245270,117.562775 
	C482.949738,114.430153 480.870056,111.592110 478.564331,108.475784 
z"/>
<path fill="#E6A780" opacity="1.000000" stroke="none" 
	d="
M309.551880,106.586594 
	C306.774323,110.307327 304.231171,113.760437 301.433655,117.558937 
	C293.868866,105.697289 289.637634,93.078606 288.942322,79.451889 
	C288.550659,71.776421 296.732056,66.864021 303.696991,70.390701 
	C308.411224,72.777733 312.814453,75.817596 317.181976,78.819733 
	C318.103027,79.452843 318.548340,81.162460 318.691254,82.434639 
	C318.833038,83.697319 317.751312,85.266800 318.177490,86.301765 
	C322.118988,95.873596 314.697601,100.549454 309.551880,106.586594 
z"/>
<path fill="#050504" opacity="1.000000" stroke="none" 
	d="
M341.033203,184.528809 
	C338.026672,187.283447 334.429199,188.988205 331.457489,186.372971 
	C329.294647,184.469513 328.189117,180.956131 327.459473,177.954544 
	C326.810120,175.283234 327.250702,172.326569 327.341400,169.500046 
	C327.527740,163.692932 329.365173,161.663971 335.578674,160.501831 
	C340.782013,161.831406 342.760315,165.199661 342.379608,170.084610 
	C342.013641,174.780334 341.562103,179.469406 341.033203,184.528809 
z"/>
<path fill="#050504" opacity="1.000000" stroke="none" 
	d="
M453.614319,160.890320 
	C457.635345,162.233383 459.227692,164.867294 459.208862,168.609695 
	C459.189575,172.441711 459.330109,176.280411 459.147980,180.104172 
	C458.936829,184.537384 455.993591,187.525681 451.942383,187.464264 
	C447.680603,187.399658 444.859100,185.043289 444.438049,180.897629 
	C443.986023,176.447495 444.010071,171.892426 444.386414,167.430374 
	C444.775635,162.816223 447.666687,160.914230 453.614319,160.890320 
z"/>
<path fill="#050504" opacity="1.000000" stroke="none" 
	d="
M396.390625,251.245560 
	C386.980682,251.683044 378.753479,249.409088 372.679260,242.536423 
	C370.822083,240.435120 370.803314,236.708923 369.952148,233.367584 
	C374.916656,227.598465 377.807129,227.443619 383.387573,232.289001 
	C389.758392,237.820663 397.157257,237.731995 403.575867,232.047089 
	C407.950928,228.172119 412.197510,227.948364 415.338654,231.427246 
	C418.395355,234.812607 417.766113,239.247253 413.583984,243.219879 
	C408.865570,247.701981 403.286835,250.407104 396.390625,251.245560 
z"/>
</svg>
